<?xml version="1.0" encoding="utf-8"?>
<!-- Generator: Adobe Illustrator 15.0.0, SVG Export Plug-In . SVG Version: 6.00 Build 0)  -->
<!DOCTYPE svg PUBLIC "-//W3C//DTD SVG 1.1//EN" "http://www.w3.org/Graphics/SVG/1.1/DTD/svg11.dtd">
<svg version="1.1" id="レイヤー_1" xmlns="http://www.w3.org/2000/svg" xmlns:xlink="http://www.w3.org/1999/xlink" x="0px"
	 y="0px" width="7000px" height="4200px" viewBox="0 0 7000 4200" enable-background="new 0 0 7000 4200" xml:space="preserve">
<path fill="#040000" d="M5013,1950v25h112h1h86h113v-25c-87,0-113-37.51-113-112.5v-675c0-5.9,0.16-11.56,0.5-17v17l107.14,187.5
	l-107.14,187.5v62.5l125-218.75l124.5,217.88v261.85c-5.49,59.34-34.61,89.03-112,89.03v25h112h1h86h113v-25
	c-87,0-113-37.51-113-112.5v-675c0-74.99,26-112.5,113-112.5v-25h-113h-86h-1h-112v25c63.62,0,94.62,20.07,106.69,60.17
	l-118.38,207.16l-119.97-207.24c12.08-40.05,43.08-60.09,106.66-60.09v-25h-113h-87h-113v25c87,0,113,37.51,113,112.5v698.47
	C5119.51,1920.32,5090.39,1950,5013,1950z M5462,1163.38V1531l-105.72-182.62L5462,1163.38z"/>
<path fill="#040000" d="M4125,3750l412.5-225l-425-237.5l389.26-227.07c41.95-15.28,110.74-22.92,110.74-22.92v-12.5l-50-0.01H4425
	l-100,0.01v12.5c0,0,45.02,8.98,43.35,19.36L4025,3250l412.5,237.5L4025,3725l482.32,219.24c11.26,18.27-69.82,18.3-69.82,18.3V3975
	h112.49l0.01,0.01l87.5-0.01v-12.5c0,0-35.3,0-69.58-8.07L4125,3750z"/>
<path fill="#040000" d="M224,975h1h112v-25c-77.39,0-106.51-29.68-112-89.03V363.15l296.74,193.88C552.07,584.9,575,624.21,575,675
	h12.5v-75v-9.35V562.5L225,325V62.5l296.29,194.12C551.84,284.5,575,323.96,575,375h12.5v-75v-9.35V262.5L225,25H125H12v25
	c87,0,113,37.51,113,112.5v675C125,912.49,99,950,12,950v25h113H224z"/>
<path fill="#040000" d="M3300,2450l275-137.5L3225,2025h-100h-0.5H3012v25c80.16,0,108.53,31.84,112.5,95.5v708.99
	c-3.97,63.66-32.34,95.5-112.5,95.5v25h112.5h0.5h100h113v-25c-87,0-113-37.51-113-112.5v-775l300,250l-262.5,125L3575,2975h37.5
	l0,0l62.5-0.02v-12.5c-38.93,0.01-63.31-4.83-82.2-20.57L3300,2450z"/>
<path fill="#040000" d="M5025,2375v50v75h12.5c0-38.89,7.57-85.35,34.47-127.6L5288,2130.44v730.53
	c-5.49,59.34-34.61,89.03-112,89.03v25h112h1h98h0.5H5500v-25c-80.16,0-108.53-31.84-112.5-95.5v-725.65l231.65,249.47
	c23.96,40.64,30.85,84.6,30.85,121.68h12.5v-75v-50l-325-350L5025,2375z"/>
<path fill="#040000" d="M3600,3500l-200-210v-127.5c0-74.99,26-112.5,113-112.5v-25h-113h-98h-1h-112v25
	c77.39,0,106.51,29.68,112,89.03v149.92L3100,3500l201,190.95v146.55c0,74.99-26,112.5-113,112.5v25h113h99h113v-25
	c-87,0-113-37.51-113-112.5V3690L3600,3500z M3564.63,3499.12L3400,3655.52v-329.27L3564.63,3499.12z M3135.37,3499.12L3301,3325.2
	v331.27L3135.37,3499.12z"/>
<path fill="#040000" d="M6658.94,1568.21L6388,1453.58V1162.5c0-74.99,26-112.5,113-112.5v-25h-113h-87h-113v25
	c87,0,113,37.51,113,112.5v254.27l-255.93-108.28c-6.66-8.06-7.57-23.14-7.57-33.49c0,0,0,0.08-12.5,0.08c0,10.8,0,22.06,0,24.92
	v0.7v24.4v12.4c0,8.08,0,18.34,0,25.08c12.5,0,12.5-0.08,12.5-0.08c0-7.35,1.09-13.59,3.57-18.13l259.93,111.1v405.51
	c-5.49,59.34-34.61,89.03-112,89.03v25h112h1h86h113v-25c-87,0-113-37.51-113-112.5v-344.85l262.55,112.22
	c7.96,8.39,11.95,18.52,11.95,32.63c0,0,0,0,12.5,0c0-8.59,0-17.47,0-22.18v-3.43V1588v-13c0-8.18,0-18.4,0-25h-12.5
	C6662.5,1550,6662.5,1560.22,6658.94,1568.21z"/>
<path fill="#040000" d="M5650,25h-87.5v12.5c28.66,0,64.62,7.3,68.82,27.49l-151.3,323.88L5212.5,487.5v-63.83l187.5-69.16L5550,25
	h-25h-12.5H5425v12.5c28.75,0,64.85,7.35,68.86,27.68L5367.52,337.5l-155.02,50.33V145.51C5216.47,81.84,5244.84,50,5325,50V25
	h-112.5h-0.5h-87h-113v25c87,0,113,37.51,113,112.5v698.47c-5.49,59.34-34.61,89.03-112,89.03v25h112h1h86h0.5H5325v-25
	c-80.16,0-108.53-31.84-112.5-95.5V525l300-120.49L5687.5,25h-25H5650z"/>
<path fill="#040000" d="M6625,2940.45v-432.87l-117.01-286.02L6242.41,2025H6212h-12h-75h-113v25c87,0,113,37.51,113,112.5v698.47
	c-5.49,59.34-34.61,89.03-112,89.03v25h112h1h86h113v-25c-87,0-113-37.51-113-112.5V2075h13.92l241.09,178.44L6575,2517.42v423.04
	c-10.91,17.9-28.38,22.05-50,22.05v12.5h75l0-0.01h0l0,0.01h75v-12.5C6653.38,2962.51,6635.91,2958.35,6625,2940.45z"/>
<path fill="#040000" d="M6687.5,37.49v-12.5l-75,0.01H6575h-50v12.5c0,0,22.61,0.01,37.42,11.41l-200.75,381.42L6199.28,77.71
	C6216.68,59.24,6244.83,50,6288,50V25h-113h-50h-37.5H6012v25c69.35,0,99.94,31.77,122.16,76.31l8.73,18.96
	c2.41,5.61,4.77,11.36,7.11,17.23l-0.54-2.95l58.32,126.64L6112.5,512.5l97.21,206.56l-116.35,221.06
	c-29.67,22.37-80.86,22.37-80.86,22.37v12.5L6075,975h37.5l0,0l50-0.01v-12.5c0,0-22.6,0-37.42-11.4L6332.5,557l168.22,365.29
	C6483.32,940.76,6455.17,950,6412,950v25h113h49h38.5h74.5v-25c-67.93,0-98.06-30.48-119.91-73.59l-10.29-22.35
	c-2.3-5.4-4.55-10.92-6.8-16.55l0.5,2.88l-67.34-146.23L6575,487.5l-84.79-230.15l102.88-195.47
	C6625.57,37.5,6687.5,37.49,6687.5,37.49z M6245.85,650.39L6162.5,462.5l58.79-146.98L6315,519L6245.85,650.39z M6525,537.5
	l-54.94,128.19l-90.89-197.36l72.68-138.1L6525,537.5z"/>
<path fill="#040000" d="M3581.89,1906.97L3388,1476.11V1162.5c0-74.99,26-112.5,113-112.5v-25h-113h-87h-113v25
	c87,0,113,37.51,113,112.5V1475h-1l-194.39,431.97c-24.76,39.21-42.63,55.53-93.11,55.53v12.5h62.5h37.5l188.5-418.89v304.86
	c-5.49,59.34-34.61,89.03-112,89.03v25h112h1h86h113v-25c-87,0-113-37.51-113-112.5v-278.06L3575,1975h37.5h62.5v-12.5
	C3624.52,1962.5,3606.65,1946.18,3581.89,1906.97z"/>
<path fill="#040000" d="M1225,975l412.5-250v-37.5L1225,500l412.5-250v-37.5L1225,25h-100h-113v25c87,0,113,37.51,113,112.5v675
	c0,74.99-26,112.5-113,112.5v25h113H1225z M1225,62.5l377.14,171.43L1225,462.5V62.5z M1225,537.5l377.14,171.43L1225,937.5V537.5z"
	/>
<path fill="#040000" d="M521.74,3142.96L225,3336.85V3025H125H12v25c87,0,113,37.51,113,112.5v675c0,74.99-26,112.5-113,112.5v25
	h113h99h1h112v-25c-77.39,0-106.51-29.68-112-89.03V3675l362.5-237.5v-28.15V3400v-75H575c0,51.04-23.16,90.5-53.71,118.38
	L225,3637.5V3375l362.5-237.5v-28.15V3100v-75H575C575,3075.79,552.07,3115.1,521.74,3142.96z"/>
<path fill="#040000" d="M4224,1975h1h112v-25c-77.39,0-106.51-29.68-112-89.03V1062.5l320.38,216.73c-2.59-1.48-5.21-2.9-7.88-4.23
	l11.87,6.93l16.54,11.19c35.13,28,59.09,71.96,59.09,131.88h25v-75v-9.35v-28.15L4225,1025h-100h-113v25c87,0,113,37.51,113,112.5
	v675c0,74.99-26,112.5-113,112.5v25h113H4224z"/>
<path fill="#040000" d="M2212,162.5c0-74.99,26-112.5,113-112.5V25h-113h-87h-113v25c87,0,113,37.51,113,112.5v698.47
	c-5.49,59.34-34.61,89.03-112,89.03v25h112h1h86h113v-25c-87,0-113-37.51-113-112.5V525.44l368.71,397.65
	c11.71,29.3-21.99,39.41-55.71,39.41V975h103.84H2675l-463-499.55V162.5z"/>
<path fill="#040000" d="M488,1025h-1H375v25c77.39,0,106.51,29.68,112,89.03v348.22L212,1350v-187.5c0-74.99,26-112.5,113-112.5v-25
	H212h-87H12v25c87,0,113,37.51,113,112.5v698.47c-5.49,59.34-34.61,89.03-112,89.03v25h112h1h86h113v-25c-87,0-113-37.51-113-112.5
	v-209.95l275,122.23v111.2c-5.49,59.34-34.61,89.03-112,89.03v25h112h1h86h113v-25c-87,0-113-37.51-113-112.5v-675
	c0-74.99,26-112.5,113-112.5v-25H574H488z M212,1587.5v-200l275,137.25v187.52L212,1587.5z"/>
<path fill="#040000" d="M3125,162.5v698.47c-5.49,59.34-34.61,89.03-112,89.03v25h112h1h86h113v-25c-50.36,0-80.28-12.57-96.55-37.7
	l109.26-362.92l109.37,362.07C3430.93,937.15,3400.92,950,3350,950v25h112h1h86h113v-25c-87,0-113-37.51-113-112.5v-675
	c0-74.99,26-112.5,113-112.5V25h-113h-86h-1h-112v25c50.71,0,80.69,12.75,96.88,38.23L3337.5,456.47L3228.12,88.22
	C3244.32,62.75,3274.29,50,3325,50V25h-113h-87h-113v25C3099,50,3125,87.51,3125,162.5z M3461.81,137.15
	c0.06,0.62,0.13,1.25,0.19,1.88v721.95c-0.33,3.58-0.75,7.04-1.26,10.4L3351.5,503.59L3461.81,137.15z M3212,162.5
	c0-8.99,0.38-17.44,1.19-25.36l110.5,365.82l-109.43,368.41c-1.55-10.29-2.26-21.57-2.26-33.88V162.5z"/>
<path fill="#040000" d="M2575,3025l-187,415.56V3162.5c0-74.99,26-112.5,113-112.5v-25h-113h-86h-1h-112v25
	c77.39,0,106.51,29.68,112,89.03v304.86L2112.5,3025H2075h-62.5v12.5c50.48,0,68.35,16.32,93.11,55.53L2300,3525h1v312.5
	c0,74.99-26,112.5-113,112.5v25h113h87h113v-25c-87,0-113-37.51-113-112.5v-313.61l193.89-430.86
	c24.76-39.21,42.63-55.53,93.11-55.53V3025h-62.5H2575z"/>
<path fill="#040000" d="M4487.5,25L4487.5,25L4375,25v25c80.16,0,108.53,31.84,112.5,95.51v5.54L4350,300l-137.76-149.25
	C4214.97,83.6,4242.67,50,4325,50V25h-113h-87h-113v25c87,0,113,37.51,113,112.5v698.47c-5.49,59.34-34.61,89.03-112,89.03v25h112h1
	h86h113v-25c-87,0-113-37.51-113-112.5V213l138,149.5l137.5-148.96V854.5c-3.97,63.66-32.34,95.5-112.5,95.5v25h112.5h0.5h86h113
	v-25c-87,0-113-37.51-113-112.5v-675c0-74.99,26-112.5,113-112.5V25h-113L4487.5,25z"/>
<path fill="#040000" d="M1539,1050v-25h-113h-100h-0.5H1213v25c80.16,0,108.53,31.84,112.5,95.5v708.99
	c-3.97,63.66-32.34,95.5-112.5,95.5v25h112.5h0.5h100h113v-25c-87,0-113-37.51-113-112.5v-675C1426,1087.51,1452,1050,1539,1050z"/>
<path fill="#040000" d="M2461.5,2025l-424,275v25l424,249.41v280.08c-3.97,63.66-32.34,95.5-112.5,95.5v25h112.5h0.5h100h113v-25
	c-87,0-113-37.51-113-112.5v-675c0-74.99,26-112.5,113-112.5v-25h-113H2461.5z M2087.5,2312.5l374-249.33v473.73L2087.5,2312.5z"/>
<path fill="#040000" d="M1562,2025h-99h-1h-112v25c78.71,0,107.49,30.71,112.26,92.09l0.24,106.52l-350-223.61H1088h-0.5H1013v12.5
	c55.65,0,71.66,29.73,74.5,80.37v764.27c-2.84,50.64-18.85,80.37-74.5,80.37v12.5h74.5h0.5h24.5l350-223.61v103.11
	c-3.97,63.66-32.34,95.5-112.5,95.5v25h112.5h0.5h99h1h112v-25c-78.42,0-107.27-30.48-112.2-91.4l-0.3-171.1v-25l-375,237.5v-800
	l375,237.5v-25v-167c3.97-63.66,32.34-95.5,112.5-95.5v-25h-112.5H1562z"/>
<path fill="#040000" d="M516.82,2843.93l-144.63-227.91L537.5,2387.5l-200-362.5L125,2412.5l168.16,260.93l-175.17,242.14
	C93.55,2939.63,68.01,2950,12,2950l0,25h63h25h12.5H226v-25c-57.26,0-66.65-27.08-52.13-59.84l34.03-47.05l4.59-5.61
	c-0.67,0.67-1.33,1.34-1.99,2.01l100.31-138.67l100.33,155.68c30.23,53.32,41.81,93.46-36.15,93.47l0,25l112.49-0.01l0.01,0.01H574
	h26h87v-25C602.52,2950,564.72,2914.64,516.82,2843.93z M199.89,2344.52L300,2162.5l161.94,277.61l-107.28,148.3L199.89,2344.52z"/>
<path fill="#040000" d="M4562.9,2859.82l-0.4-459.82v-12.5L4225,2561.07l0.38-413.52c3.49-65.02,31.6-97.55,112.61-97.55v-25h-112.5
	h-0.5h-99h-1h-112v25c77.39,0,106.51,29.68,112,89.03v473.47v12.5v25l337.5-173.57v378.07c-3.97,63.66-32.34,95.5-112.5,95.5v25
	h112.5h0.5h99h1h112v-25C4597.11,2950,4568.12,2919.93,4562.9,2859.82z"/>
<path fill="#040000" d="M2312.93,1550.46c48.73,36.78,23.67,36.54-37.93,36.54v13h112.25H2400h24.75l-337.5-225l412.5-350H2412h-12
	h-125v24.5c50,0,99.75,0.75,49.75,38l4.7-3.36L2012.25,1350L2312.93,1550.46z"/>
<path fill="#040000" d="M2374.07,1449.54c-48.73-36.78-23.67-36.54,37.93-36.54v-13h-112.25H2287h-24.75l337.5,225l-412.5,350H2275
	h12h125v-24.5c-50,0-99.75-0.75-49.75-38l-4.7,3.36l317.2-265.86L2374.07,1449.54z"/>
<path fill="#040000" d="M1126,3025h-0.5H1013v25c80.16,0,108.53,31.84,112.5,95.5v708.99c-3.97,63.66-32.34,95.5-112.5,95.5v25
	h112.5h0.5h99h1h112v-25c-77.39,0-106.51-29.68-112-89.03v-286.56L1650,3325v-25l-424-275H1126z M1600,3312.5l-374,224.4v-473.73
	L1600,3312.5z"/>
</svg>
