<?xml version="1.0" encoding="utf-8"?>
<!-- Generator: Adobe Illustrator 15.0.0, SVG Export Plug-In . SVG Version: 6.00 Build 0)  -->
<!DOCTYPE svg PUBLIC "-//W3C//DTD SVG 1.1//EN" "http://www.w3.org/Graphics/SVG/1.1/DTD/svg11.dtd">
<svg version="1.1" id="レイヤー_1" xmlns="http://www.w3.org/2000/svg" xmlns:xlink="http://www.w3.org/1999/xlink" x="0px"
	 y="0px" width="7000px" height="7000px" viewBox="0 0 7000 7000" enable-background="new 0 0 7000 7000" xml:space="preserve">
<g>
	<path fill="#040000" d="M5013,1950v25h112h1h86h113v-25c-87,0-113-37.51-113-112.5v-675c0-5.896,0.162-11.562,0.5-16.995v16.995
		l107.143,187.5L5212.5,1537.5v62.5l125-218.75l124.5,217.875v261.849c-5.488,59.343-34.609,89.026-112,89.026v25h112h1h86h113v-25
		c-87,0-113-37.51-113-112.5v-675c0-74.99,26-112.5,113-112.5v-25h-113h-86h-1h-112v25c63.624,0,94.62,20.065,106.686,60.175
		l-118.375,207.157l-119.97-207.242c12.084-40.053,43.081-60.09,106.659-60.09v-25h-113h-87h-113v25c87,0,113,37.51,113,112.5
		v698.474C5119.512,1920.316,5090.391,1950,5013,1950z M5462,1163.375V1531l-105.717-182.621L5462,1163.375z"/>
	<path fill="#040000" d="M224,975h1h112v-25c-77.391,0-106.511-29.684-112-89.026v-497.82l296.745,193.884
		C552.072,584.897,575,624.215,575,675h12.5v-75v-9.347V562.5L225,325V62.5l296.287,194.119C551.841,284.503,575,323.96,575,375
		h12.5v-75v-9.347V262.5L225,25H125H12v25c87,0,113,37.51,113,112.5v675C125,912.49,99,950,12,950v25h113H224z"/>
	<path fill="#040000" d="M3300,2450l275-137.5L3225,2025h-100h-0.5H3012v25c80.158,0,108.533,31.844,112.5,95.505v708.99
		c-3.967,63.661-32.342,95.505-112.5,95.505v25h112.5h0.5h100h113v-25c-87,0-113-37.51-113-112.5v-775l300,250l-262.5,125L3575,2975
		h37.5l-0.002-0.004l62.502-0.02v-12.5c-38.928,0.015-63.306-4.834-82.199-20.572L3300,2450z"/>
	<path fill="#040000" d="M5025,2375v50v75h12.5c0-38.894,7.572-85.349,34.467-127.603L5288,2130.439v730.534
		c-5.488,59.343-34.609,89.026-112,89.026v25h112h1h98h0.5H5500v-25c-80.158,0-108.533-31.844-112.5-95.505v-725.649l231.65,249.47
		c23.955,40.638,30.85,84.599,30.85,121.685h12.5v-75v-50l-325-350L5025,2375z"/>
	<path fill="#040000" d="M5575,5500l-215.826-226.617c0.816-10.878,23.23-10.883,64.826-10.883V5238h-98.523l-0.477-0.5l-0.477,0.5
		H5324h-99v24.5c42.873,0,65.373,0.004,64.842,11.916L5075,5500l206.334,196.017c4.938,16.744-26.619,16.983-69.334,16.983v24h112
		h0.474l0.526,0.5l0.526-0.5H5437v-24c-41.632,0-72.667-0.227-69.643-15.74L5575,5500z M5325,5324.5l165.121,173.377L5325,5654.741
		l-165.121-156.864L5325,5324.5z"/>
	<path fill="#040000" d="M6658.942,1568.206L6388,1453.577V1162.5c0-74.99,26-112.5,113-112.5v-25h-113h-87h-113v25
		c87,0,113,37.51,113,112.5v254.27l-255.927-108.277c-6.662-8.056-7.573-23.14-7.573-33.492c0,0,0,0.084-12.5,0.084
		c0,10.804,0,22.059,0,24.916v0.697v24.398v12.404c0,8.081,0,18.337,0,25.084c12.5,0,12.5-0.084,12.5-0.084
		c0-7.346,1.09-13.591,3.566-18.133L6301,1455.466v405.508c-5.488,59.343-34.609,89.026-112,89.026v25h112h1h86h113v-25
		c-87,0-113-37.51-113-112.5v-344.85l262.553,112.219c7.963,8.394,11.947,18.521,11.947,32.631c0,0,0,0,12.5,0
		c0-8.589,0-17.467,0-22.182v-3.432v-23.882V1575c0-8.182,0-18.401,0-25h-12.5C6662.5,1550,6662.498,1560.216,6658.942,1568.206z"/>
	<path fill="#040000" d="M5650,25h-87.5v12.5c28.661,0,64.621,7.303,68.82,27.487l-151.298,323.879L5212.5,487.5v-63.832
		l187.5-69.159L5550,25h-25h-12.5H5425v12.5c28.752,0,64.85,7.349,68.859,27.679L5367.522,337.5L5212.5,387.826V145.505
		C5216.467,81.843,5244.842,50,5325,50V25h-112.5h-0.5h-87h-113v25c87,0,113,37.51,113,112.5v698.474
		c-5.488,59.343-34.609,89.026-112,89.026v25h112h1h86h0.5H5325v-25c-80.158,0-108.533-31.844-112.5-95.505V525l300-120.491
		L5687.5,25h-25H5650z"/>
	<path fill="#040000" d="M4437.5,3962.541V3975h112.492l0.008,0.012l87.5-0.012v-12.5c0,0-35.304-0.001-69.578-8.074L4125,3750
		l412.5-225l-425-237.5l389.259-227.067c41.95-15.284,110.741-22.921,110.741-22.921v-12.5l-50-0.012H4425l-100,0.012v12.5
		c0,0,45.021,8.981,43.347,19.355L4025,3250l412.5,237.5L4025,3725l482.322,219.237
		C4518.585,3962.504,4437.5,3962.541,4437.5,3962.541z"/>
	<path fill="#040000" d="M6625,2940.452v-432.868l-117.008-286.021L6242.411,2025H6212h-12h-75h-113v25c87,0,113,37.51,113,112.5
		v698.474c-5.488,59.343-34.609,89.026-112,89.026v25h112h1h86h113v-25c-87,0-113-37.51-113-112.5V2075h13.921l241.087,178.436
		L6575,2517.416v423.036c-10.914,17.896-28.379,22.055-50,22.048v12.5h75l-0.002-0.012h0.004L6600,2975h75v-12.5
		C6653.379,2962.507,6635.914,2958.348,6625,2940.452z"/>
	<path fill="#040000" d="M6687.5,37.488v-12.5l-75,0.012H6575h-50v12.5c0,0,22.605,0.006,37.416,11.409l-200.75,381.424
		L6199.275,77.712C6216.682,59.242,6244.828,50,6288,50V25h-113h-50h-37.5H6012v25c69.346,0,99.936,31.767,122.156,76.31
		l8.732,18.964c2.412,5.611,4.766,11.364,7.111,17.227l-0.537-2.951l58.324,126.645L6112.5,512.5l97.205,206.561l-116.348,221.062
		c-29.666,22.372-80.857,22.366-80.857,22.366v12.5L6075,975h37.5l0.001-0.002l49.999-0.01v-12.5c0,0-22.604-0.001-37.415-11.399
		L6332.5,557l168.225,365.288C6483.318,940.758,6455.172,950,6412,950v25h113h49h38.5h74.5v-25
		c-67.929,0-98.06-30.481-119.906-73.595l-10.294-22.354c-2.296-5.397-4.548-10.923-6.8-16.551l0.502,2.876l-67.344-146.232
		L6575,487.5l-84.791-230.147L6593.09,61.88C6625.566,37.502,6687.5,37.488,6687.5,37.488z M6245.848,650.39L6162.5,462.5
		l58.792-146.98L6315,519L6245.848,650.39z M6525,537.503l-54.941,128.195l-90.893-197.365l72.683-138.096L6525,537.503z"/>
	<path fill="#040000" d="M3581.888,1906.973L3388,1476.111V1162.5c0-74.99,26-112.5,113-112.5v-25h-113h-87h-113v25
		c87,0,113,37.51,113,112.5V1475h-1l-194.388,431.973c-24.765,39.211-42.628,55.527-93.112,55.527v12.5h62.5h37.5l188.5-418.889
		v304.862c-5.488,59.343-34.609,89.026-112,89.026v25h112h1h86h113v-25c-87,0-113-37.51-113-112.5v-278.056L3575,1975h37.5h62.5
		v-12.5C3624.516,1962.5,3606.652,1946.184,3581.888,1906.973z"/>
	<path fill="#040000" d="M1225,975l412.5-250v-37.5L1225,500l412.5-250v-37.5L1225,25h-100h-113v25c87,0,113,37.51,113,112.5v675
		c0,74.99-26,112.5-113,112.5v25h113H1225z M1225,62.5l377.143,171.429L1225,462.5V62.5z M1225,537.5l377.143,171.429L1225,937.5
		V537.5z"/>
	<path fill="#040000" d="M12,3950v25h113h99h1h112v-25c-77.391,0-106.511-29.684-112-89.026V3675l362.5-237.5v-28.153V3400v-75H575
		c0,51.04-23.159,90.497-53.713,118.381L225,3637.5V3375l362.5-237.5v-28.153V3100v-75H575c0,50.785-22.928,90.104-53.255,117.963
		L225,3336.847V3025H125H12v25c87,0,113,37.51,113,112.5v675C125,3912.49,99,3950,12,3950z"/>
	<path fill="#040000" d="M4224,1975h1h112v-25c-77.391,0-106.512-29.684-112-89.026V1062.5l320.382,216.729
		c-2.593-1.476-5.215-2.896-7.882-4.229l11.874,6.93l16.536,11.186C4601.043,1321.12,4625,1365.07,4625,1425h25v-75v-9.347V1312.5
		L4225,1025h-100h-113v25c87,0,113,37.51,113,112.5v675c0,74.99-26,112.5-113,112.5v25h113H4224z"/>
	<path fill="#040000" d="M4287.5,925l-183.779-192.898C4071.632,682.761,4050,619.078,4050,562.5h-24.5V650v9.347V700l262,275V925z"
		/>
	<path fill="#040000" d="M4288,162.5V975h99h1h112v-25c-77.391,0-106.512-29.684-112-89.026V75l183.533,192.64
		C4603.576,317.017,4625,380.822,4625,437.5h25V350v-9.347V300L4388,25h-100h-113v25C4262,50,4288,87.51,4288,162.5z"/>
	<path fill="#040000" d="M2125,162.5v698.474c-5.488,59.343-34.609,89.026-112,89.026v25h112h1h86h113v-25
		c-87,0-113-37.51-113-112.5V525.442l368.711,397.651c11.714,29.298-21.993,39.407-55.711,39.407V975h103.841H2675l-463-499.553
		V162.5c0-74.99,26-112.5,113-112.5V25h-113h-87h-113v25C2099,50,2125,87.51,2125,162.5z"/>
	<path fill="#040000" d="M488,1025h-1H375v25c77.391,0,106.511,29.684,112,89.026v348.224L212,1350v-187.5
		c0-74.99,26-112.5,113-112.5v-25H212h-87H12v25c87,0,113,37.51,113,112.5v698.474C119.511,1920.316,90.391,1950,13,1950v25h112h1
		h86h113v-25c-87,0-113-37.51-113-112.5v-209.95l275,122.228v111.196c-5.489,59.343-34.609,89.026-112,89.026v25h112h1h86h113v-25
		c-87,0-113-37.51-113-112.5v-675c0-74.99,26-112.5,113-112.5v-25H574H488z M212,1587.5v-200l275,137.25v187.523L212,1587.5z"/>
	<path fill="#040000" d="M488,5025h-1H375v25c77.391,0,106.511,29.684,112,89.026v498.247L212,5512.5v-350
		c0-74.99,26-112.5,113-112.5v-25H212h-87H12v25c87,0,113,37.51,113,112.5v698.474C119.511,5920.316,90.391,5950,13,5950v25h112h1
		h86h113v-25c-87,0-113-37.51-113-112.5v-284.95l275,122.228v186.196c-5.489,59.343-34.609,89.026-112,89.026v25h112h1h86h113v-25
		c-87,0-113-37.51-113-112.5v-675c0-74.99,26-112.5,113-112.5v-25H574H488z"/>
	<path fill="#040000" d="M3125,162.5v698.474c-5.488,59.343-34.609,89.026-112,89.026v25h112h1h86h113v-25
		c-50.358,0-80.277-12.568-96.549-37.698l109.258-362.919l109.369,362.073C3430.933,937.146,3400.916,950,3350,950v25h112h1h86h113
		v-25c-87,0-113-37.51-113-112.5v-675c0-74.99,26-112.5,113-112.5V25h-113h-86h-1h-112v25c50.706,0,80.686,12.748,96.879,38.226
		L3337.5,456.466L3228.123,88.224C3244.316,62.747,3274.295,50,3325,50V25h-113h-87h-113v25C3099,50,3125,87.51,3125,162.5z
		 M3461.813,137.148c0.063,0.624,0.128,1.247,0.187,1.878v721.947c-0.331,3.577-0.752,7.042-1.26,10.403l-109.244-367.791
		L3461.813,137.148z M3212,162.5c0-8.994,0.379-17.442,1.188-25.357l110.501,365.824L3214.26,871.377
		c-1.555-10.285-2.26-21.573-2.26-33.877V162.5z"/>
	<path fill="#040000" d="M2581.888,3093.027c24.765-39.211,42.628-55.527,93.112-55.527V3025h-62.5H2575l-187,415.556V3162.5
		c0-74.99,26-112.5,113-112.5v-25h-113h-86h-1h-112v25c77.391,0,106.512,29.684,112,89.026v304.862L2112.5,3025H2075h-62.5v12.5
		c50.484,0,68.348,16.316,93.112,55.527L2300,3525h1v312.5c0,74.99-26,112.5-113,112.5v25h113h87h113v-25c-87,0-113-37.51-113-112.5
		v-313.611L2581.888,3093.027z"/>
	<path fill="#040000" d="M3400,3162.5c0-74.99,26-112.5,113-112.5v-25h-113h-98h-1h-112v25c77.391,0,106.512,29.684,112,89.026
		v149.924L3100,3500l201,190.95v146.55c0,74.99-26,112.5-113,112.5v25h113h99h113v-25c-87,0-113-37.51-113-112.5V3690l200-190
		l-200-210V3162.5z M3135.366,3499.115L3301,3325.2v331.268L3135.366,3499.115z M3564.634,3499.115L3400,3655.518V3326.25
		L3564.634,3499.115z"/>
	<path fill="#040000" d="M2575,5025h-50v12.5c0,0,22.604,0.006,37.416,11.409l-200.749,381.425l-162.392-352.622
		c17.406-18.47,45.553-27.712,88.725-27.712v-25h-113h-50h-37.5H2012v25c69.346,0,99.936,31.767,122.156,76.31l8.732,18.964
		c2.412,5.611,4.767,11.364,7.111,17.227l-0.537-2.951L2315,5519l-221.643,421.121c-29.666,22.373-80.857,22.367-80.857,22.367v12.5
		L2075,5975h37.5l0.001-0.002l49.999-0.01v-12.5c0,0-22.604,0-37.415-11.399L2332.5,5557l168.225,365.288
		c-17.406,18.47-45.553,27.712-88.725,27.712v25h113h49h38.5h74.5v-25c-67.929,0-98.06-30.482-119.906-73.596l-10.294-22.354
		c-2.296-5.398-4.549-10.922-6.8-16.551l0.502,2.875l-171.335-372.041l213.923-406.453c32.477-24.379,94.41-24.393,94.41-24.393
		v-12.5l-75,0.012H2575z"/>
	<path fill="#040000" d="M4488,4025h-0.5H4375v25c80.158,0,108.533,31.844,112.5,95.506v5.535L4350,4300l-137.765-149.245
		C4214.973,4083.598,4242.67,4050,4325,4050v-25h-113h-87h-113v25c87,0,113,37.51,113,112.5v698.474
		c-5.488,59.343-34.609,89.026-112,89.026v25h112h1h86h113v-25c-87,0-113-37.51-113-112.5V4213l138,149.5l137.5-148.959v640.953
		c-3.967,63.662-32.342,95.506-112.5,95.506v25h112.5h0.5h86h113v-25c-87,0-113-37.51-113-112.5v-675c0-74.99,26-112.5,113-112.5
		v-25h-113H4488z"/>
	<path fill="#040000" d="M1326,5025h-0.5H1213v25c80.158,0,108.533,31.844,112.5,95.506v708.988
		c-3.967,63.662-32.342,95.506-112.5,95.506v25h112.5h0.5h100h113v-25c-87,0-113-37.51-113-112.5v-675c0-74.99,26-112.5,113-112.5
		v-25h-113H1326z"/>
	<path fill="#040000" d="M2675,2050v-25h-113h-100.5l-424,275v25l424,249.412v280.083c-3.967,63.661-32.342,95.505-112.5,95.505v25
		h112.5h0.5h100h113v-25c-87,0-113-37.51-113-112.5v-675C2562,2087.51,2588,2050,2675,2050z M2087.5,2312.5l374-249.333V2536.9
		L2087.5,2312.5z"/>
	<path fill="#040000" d="M1562,2025h-99h-1h-112v25c78.713,0,107.491,30.707,112.26,92.094l0.237,106.516L1112.5,2025H1088h-0.5
		H1013v12.5c55.65,0,71.659,29.73,74.5,80.367v764.266c-2.841,50.637-18.85,80.367-74.5,80.367v12.5h74.5h0.5h24.5l350-223.611
		v103.106c-3.967,63.661-32.342,95.505-112.5,95.505v25h112.5h0.5h99h1h112v-25c-78.416,0-107.271-30.479-112.202-91.404
		L1562.5,2687.5v-25l-375,237.5v-800l375,237.5v-25v-166.995c3.967-63.661,32.342-95.505,112.5-95.505v-25h-112.5H1562z"/>
	<path fill="#040000" d="M516.82,2843.929l-144.634-227.907L537.5,2387.5l-200-362.5L125,2412.5l168.156,260.932l-175.168,242.145
		c-24.435,24.056-49.981,34.419-105.99,34.424L12,2975h63h25h12.5H226v-25c-57.262,0-66.65-27.076-52.125-59.842l34.033-47.046
		l4.592-5.612c-0.668,0.668-1.329,1.339-1.987,2.012l100.311-138.665l100.328,155.682c30.231,53.316,41.809,93.465-36.154,93.472
		l0.002,25l112.493-0.011L487.5,2975H574h26h87v-25C602.523,2950,564.716,2914.641,516.82,2843.929z M199.888,2344.521L300,2162.5
		l161.94,277.611l-107.278,148.297L199.888,2344.521z"/>
	<path fill="#040000" d="M4675,2950c-77.891,0-106.882-30.072-112.1-90.183L4562.5,2400v-12.5l-337.498,173.57l0.384-413.517
		C4228.873,2082.53,4256.988,2050,4338,2050v-25h-112.5h-0.5h-99h-1h-112v25c77.391,0,106.512,29.684,112,89.026V2612.5v12.5v25
		l337.5-173.571v378.066c-3.967,63.661-32.342,95.505-112.5,95.505v25h112.5h0.5h99h1h112V2950z"/>
	<path fill="#040000" d="M3462,5218h-12h-125v24.5c50,0,99.75,0.75,49.75,38l4.696-3.364L3062.25,5543l303.506,235.275l-3.756-2.525
		c50,37.5,13,49.25-49,49.25v18h136.25H3462h86.75L3175,5537.5l374.75-319.5H3462z"/>
	<path fill="#040000" d="M2374.066,1449.544C2325.334,1412.76,2350.395,1413,2412,1413v-13h-112.25H2287h-24.75l337.5,225
		l-412.5,350H2275h12h125v-24.5c-50,0-99.75-0.75-49.75-38l-4.696,3.364L2674.75,1650L2374.066,1449.544z"/>
	<path fill="#040000" d="M2324.934,1550.456C2373.666,1587.24,2348.605,1587,2287,1587v13h112.25H2412h24.75l-337.5-225l412.5-350
		H2424h-12h-125v24.5c50,0,99.75,0.75,49.75,38l4.696-3.364L2024.25,1350L2324.934,1550.456z"/>
	<path fill="#040000" d="M1126,3025h-0.5H1013v25c80.158,0,108.533,31.844,112.5,95.505v708.99
		c-3.967,63.661-32.342,95.505-112.5,95.505v25h112.5h0.5h99h1h112v-25c-77.392,0-106.512-29.684-112-89.026v-286.562L1650,3325v-25
		l-424-275H1126z M1600,3312.5l-374,224.4v-473.733L1600,3312.5z"/>
	<path fill="#040000" d="M4226,6139.026c5.488-59.343,34.609-89.026,112-89.026v-25h-112h-1h-99h-0.5H4013v25
		c80.158,0,108.533,31.844,112.5,95.506v708.988c-3.967,63.662-32.342,95.506-112.5,95.506v25h112.5h0.5h99h1h112v-25
		c-77.391,0-106.512-29.684-112-89.026v-86.562L4650,6525v-25l-424-275V6139.026z M4600,6512.5l-374,224.4v-473.734L4600,6512.5z"/>
	<path fill="#040000" d="M1574.5,1025H1537h-113v25c39.749,0,61.54,7.835,73.491,23.492l-147.62,181.188l-149.747-183.562
		c11.351-15.011,33.322-21.119,75.876-21.119v-25h-113l0.162,0.811L1162.5,1025h-37h-63h-50v25
		c49.934,0,83.726,20.594,115.272,52.318l176.192,208.706L1150,1500l154.066,188.855l-173.668,205.717
		c-33.327,35.688-63.663,54.928-117.898,54.928v25.5h50h63h37.5h113v-25c-39.749,0-61.54-7.835-73.491-23.492l147.62-181.188
		l149.747,183.562C1488.525,1943.892,1466.554,1950,1424,1950v25h113l-0.162-0.811l0.662,0.811h37h63h50v-25
		c-49.934,0-83.726-20.594-115.272-52.318l-176.192-208.706L1550,1500l-154.066-188.855l173.668-205.717
		c33.327-35.688,63.663-54.928,117.898-54.928V1025h-50H1574.5z M1463.5,1500L1350,1634.445L1236.5,1500l113.5-134.445L1463.5,1500z
		"/>
</g>
</svg>
