<?xml version="1.0" encoding="iso-8859-1"?>
<!-- Generator: Adobe Illustrator 15.0.0, SVG Export Plug-In . SVG Version: 6.00 Build 0)  -->
<!DOCTYPE svg PUBLIC "-//W3C//DTD SVG 1.1//EN" "http://www.w3.org/Graphics/SVG/1.1/DTD/svg11.dtd">
<svg version="1.1" id="&#x30EC;&#x30A4;&#x30E4;&#x30FC;_1"
	 xmlns="http://www.w3.org/2000/svg" xmlns:xlink="http://www.w3.org/1999/xlink" x="0px" y="0px" width="1000px" height="1000px"
	 viewBox="0 0 1000 1000" style="enable-background:new 0 0 1000 1000;" xml:space="preserve">
<circle style="fill:none;stroke:#000000;stroke-width:10;stroke-miterlimit:10;" cx="500" cy="500" r="450"/>
<circle style="fill:none;stroke:#000000;stroke-width:2;stroke-miterlimit:10;" cx="500" cy="500" r="435.555"/>
<circle style="fill:none;stroke:#000000;stroke-width:2;stroke-miterlimit:10;" cx="500" cy="500" r="428.889"/>
<circle style="fill:none;stroke:#000000;stroke-width:2;stroke-miterlimit:10;" cx="500" cy="500" r="428.889"/>
<g>
	<path style="fill:none;stroke:#000000;stroke-miterlimit:10;" d="M837.243,299.681l0.992,22.051l39.684-22.071l1.92,3.453
		l-43.734,24.324l-1.92-3.453l0.046-0.025l-1.039-22.026L837.243,299.681z"/>
	<path style="fill:none;stroke:#000000;stroke-miterlimit:10;" d="M855.362,262.05l-7.324,13.406l15.229-1.201l2.492,3.847
		l-20.042,1.62l-8.312,15.175l-20.1,0.464l8.644-18.152l17.247-1.378l9.674-17.627L855.362,262.05z M840.875,280.095l-12.406,1.005
		l-5.105,10.337l11.521-0.432L840.875,280.095z"/>
	<path style="fill:none;stroke:#000000;stroke-miterlimit:10;" d="M807.469,280.735l3.865-25.637l11.313,6.344l13.222-26.314
		l2.364,3.166l-13.488,28.157l-10.526-5.289l-2.393,16.516l35.833-26.764l2.396,3.208l-40.095,29.948l-1.482-1.983l-0.914-1.224
		L807.469,280.735z"/>
	<path style="fill:none;stroke:#000000;stroke-miterlimit:10;" d="M830.164,228.18l2.57,3l-37.974,32.598l-2.604-3.041l0.601-0.514
		l8.079-17.048l-18.366,5.12l-0.561,0.48l-2.604-3.041l38.042-32.518l2.57,3.001l-31.893,27.388l18.029-5.108l-7.816,17.031
		L830.164,228.18z"/>
	<path style="fill:none;stroke:#000000;stroke-miterlimit:10;" d="M761.696,227.666l35.762-35.022l2.285,2.334l-9.899,9.695
		l-4.453,16.086l16.434-3.852l9.938-9.658l2.285,2.334l-35.761,35.022L776,242.271l5.021-16.937l-17.001,4.703L761.696,227.666z
		 M785.627,208.802l-16.939,16.589l13.078-3.589L785.627,208.802z M784.53,224.626l-3.824,13.038l16.977-16.626L784.53,224.626z"/>
	<path style="fill:none;stroke:#000000;stroke-miterlimit:10;" d="M731.147,201.485l30.848-39.414l3.111,2.435l-30.847,39.415
		L731.147,201.485z"/>
	<path style="fill:none;stroke:#000000;stroke-miterlimit:10;" d="M722.051,194.401l-8.933-21.998l-7.404,10.891l-3.267-2.221
		l11.847-17.426l8.932,21.998l19.252-28.316l-23.741-0.216l11.847-17.425l3.268,2.221l-7.404,10.891l23.741,0.215L722.051,194.401z"
		/>
	<path style="fill:none;stroke:#000000;stroke-miterlimit:10;" d="M710.275,156.696l-0.072,0.019l-21.948-1.626l17.683-30.065
		l3.409,1.998l-14.253,24.319l21.948,1.627l-15.913,27.255l-3.455-2.025L710.275,156.696z"/>
	<path style="fill:none;stroke:#000000;stroke-miterlimit:10;" d="M673.936,164.771l-5.875-13.59l2.414-20.168l9.553-19.137
		l3.063,1.529l-9.271,18.571l-2.273,18.708l5.05,11.588l0.565,0.282l20.823-41.714l3.582,1.789l-22.353,44.777L673.936,164.771z"/>
	<path style="fill:none;stroke:#000000;stroke-miterlimit:10;" d="M634.714,147.017l19.279-46.184l3.015,1.258l-5.338,12.786
		l2.169,16.547l13.631-9.952l5.386-12.765l3.015,1.258l-19.279,46.184l-3.015-1.258l-1.978-17.552l-13.822,10.956L634.714,147.017z
		 M649.397,120.321l-9.133,21.876l10.644-8.401L649.397,120.321z M654.554,135.318l1.56,13.496l9.152-21.925L654.554,135.318z"/>
	<path style="fill:none;stroke:#000000;stroke-miterlimit:10;" d="M590.051,133.179l-3.206-0.858l12.944-48.344l3.206,0.858
		l2.971,21.901l13.568-17.473l3.104,0.831l-12.894,48.357l-3.155-0.845l-2.889-22.206l-13.599,17.792L590.051,133.179z
		 M600.774,93.13l-8.262,31.055l10.527-13.651L600.774,93.13z M606.64,111.552l2.385,17.163l8.353-31.194L606.64,111.552z"/>
	<path style="fill:none;stroke:#000000;stroke-miterlimit:10;" d="M576.162,79.136l4.543,14.585l9.726-11.78l4.497,0.884
		l-12.771,15.53l5.128,16.526l-13.642,14.769l-7.037-18.834l11.002-13.355l-5.942-19.209L576.162,79.136z M579.059,102.096
		l-7.903,9.615l3.879,10.857l7.701-8.581L579.059,102.096z"/>
	<path style="fill:none;stroke:#000000;stroke-miterlimit:10;" d="M538.72,109.707l18.352,12.273l5.748-45.049l3.919,0.5
		l-6.334,49.648l-3.92-0.5l0.007-0.052l-18.357-12.221L538.72,109.707z"/>
	<path style="fill:none;stroke:#000000;stroke-miterlimit:10;" d="M519.201,72.794l6.447,13.847l8.065-12.971l4.575,0.276
		l-10.584,17.093l7.285,15.691l-11.548,16.454l-9.484-17.724l9.12-14.701l-8.451-18.242L519.201,72.794z M525.135,95.159
		l-6.55,10.582l5.293,10.241l6.485-9.53L525.135,95.159z"/>
	<path style="fill:none;stroke:#000000;stroke-miterlimit:10;" d="M506.045,122.347l-18.524-18.14l11.766-5.459l-13.596-26.123
		l3.951-0.064l14.934,27.418l-10.449,5.438l11.99,11.607l-0.726-44.72l4.003-0.065l0.813,50.04l-2.476,0.04l-1.528,0.025
		L506.045,122.347z"/>
	<path style="fill:none;stroke:#000000;stroke-miterlimit:10;" d="M452.571,100.234l-0.045,0.06l-18.244,12.303l-4.716-34.554
		l3.914-0.54l3.853,27.919l18.244-12.303l4.366,31.251l-3.966,0.547L452.571,100.234z"/>
	<path style="fill:none;stroke:#000000;stroke-miterlimit:10;" d="M421.289,130.684l-10.162-49.011l3.87-0.802l10.161,49.01
		L421.289,130.684z"/>
	<path style="fill:none;stroke:#000000;stroke-miterlimit:10;" d="M382.585,122.934l12.203,6.879l-11.512-41.261l3.806-1.062
		l11.498,41.21l6.843-12.139l1.416,5.075l-8.233,14.605l-14.605-8.233L382.585,122.934z"/>
	<path style="fill:none;stroke:#000000;stroke-miterlimit:10;" d="M334.84,144.181l22.04,1.251l-3.556-8.276l-22.137-1.21
		l-1.546-3.865l22.04,1.252l-12.729-29.621l3.63-1.56l19.758,45.981l-3.63,1.56l-0.021-0.048l-22.019-1.203L334.84,144.181z"/>
	<path style="fill:none;stroke:#000000;stroke-miterlimit:10;" d="M318.02,168.936l-22.802-44.546l2.907-1.488l6.313,12.332
		l14.032,9.032l1.207-16.832l-6.266-12.356l2.907-1.488l22.802,44.545l-2.907,1.488l-14.676-9.827l-0.564,17.627L318.02,168.936z
		 M307.126,140.485l10.801,21.101l0.461-13.551L307.126,140.485z M321.904,146.235l11.309,7.526l-10.825-21.147L321.904,146.235z"/>
	<path style="fill:none;stroke:#000000;stroke-miterlimit:10;" d="M287.362,128.878l3.389-2.033l25.79,42.895l-3.434,2.06
		l-0.407-0.677l-15.458-10.818l1.976,18.966l0.379,0.632l-3.434,2.06l-25.7-42.949l3.389-2.033l21.671,36.028l-2.021-18.631
		l15.485,10.556L287.362,128.878z"/>
	<path style="fill:none;stroke:#000000;stroke-miterlimit:10;" d="M265.597,182.261l13.784,2.481l-24.438-35.169l3.244-2.254
		l24.409,35.126l2.468-13.71l3.006,4.326l-2.97,16.497l-16.497-2.97L265.597,182.261z"/>
	<path style="fill:none;stroke:#000000;stroke-miterlimit:10;" d="M187.171,208.459l21.778,2.646l-12.657-12.149l2.736-2.851
		l36.109,34.66l-2.736,2.851l-19.461-18.68l-29.272-2.828L187.171,208.459z"/>
	<path style="fill:none;stroke:#000000;stroke-miterlimit:10;" d="M167.854,230.641l14.964,3.064l-5.619-14.204l2.946-3.511
		l7.432,18.682l16.946,3.489l6.345,19.076l-19.889-2.932l-6.382-16.082l-19.689-4.072L167.854,230.641z M189.357,239.191
		l4.603,11.563l11.38,1.845l-3.795-10.886L189.357,239.191z"/>
	<path style="fill:none;stroke:#000000;stroke-miterlimit:10;" d="M175.595,266.072l-22.326-16.326l2.333-3.189l23.899,17.477
		l7.959-4.101l3.7,2.705l-7.874,4.163l12.715,9.298l-2.333,3.189l-14.331-10.479l-7.917,4.131l-3.742-2.736L175.595,266.072z"/>
	<path style="fill:none;stroke:#000000;stroke-miterlimit:10;" d="M164.118,278.081l0.016,0.073l-2.379,21.877l-29.437-18.702
		l2.113-3.338l23.813,15.078l2.379-21.877l26.689,16.837l-2.142,3.382L164.118,278.081z"/>
	<path style="fill:none;stroke:#000000;stroke-miterlimit:10;" d="M127.872,289.125l1.885-3.472l44.005,23.828l-1.91,3.519
		l-0.694-0.377l-18.808-1.459l11.339,15.326l0.648,0.352l-1.91,3.519l-43.955-23.921l1.885-3.472l36.969,20.008l-11.209-15.015
		l18.698,1.219L127.872,289.125z"/>
	<path style="fill:none;stroke:#000000;stroke-miterlimit:10;" d="M108.55,327.62l21.434-4.659l-15.945-7.312l1.647-3.591
		l45.488,20.86l-1.646,3.591l-24.516-11.242l-28.57,6.95L108.55,327.62z"/>
	<path style="fill:none;stroke:#000000;stroke-miterlimit:10;" d="M126.765,370.891l12.771-5.749l-40.045-15.185l1.401-3.694
		l39.995,15.166l-5.718-12.704l4.926,1.868l6.88,15.285l-15.285,6.88L126.765,370.891z"/>
	<path style="fill:none;stroke:#000000;stroke-miterlimit:10;" d="M93.179,367.789l1.147-3.781l47.91,14.489l-1.163,3.832
		l-0.756-0.229l-18.72,2.356l14.195,12.733l0.706,0.214l-1.163,3.832l-47.879-14.59l1.148-3.781l40.247,12.163l-14.004-12.456
		l18.564-2.568L93.179,367.789z"/>
	<path style="fill:none;stroke:#000000;stroke-miterlimit:10;" d="M112.885,421.978l11.882-7.418l-41.732-9.651l0.891-3.85
		l41.68,9.64l-7.379-11.819l5.133,1.188l8.878,14.22l-14.221,8.878L112.885,421.978z"/>
	<path style="fill:none;stroke:#000000;stroke-miterlimit:10;" d="M128.31,433.216l-11.216,9.667l-19.971,3.721l-21.119-3.401
		l0.544-3.381l20.495,3.301l18.535-3.419l9.552-8.281l0.101-0.624l-46.036-7.414l0.637-3.954l49.417,7.958L128.31,433.216z"/>
	<path style="fill:none;stroke:#000000;stroke-miterlimit:10;" d="M124.861,456.573l-20.051,16.442l-4.147-12.292l-27.451,10.674
		l0.366-3.935l28.884-11.863l4.269,10.98l12.845-10.657l-44.538-4.146l0.371-3.987l49.837,4.639l-0.229,2.465l-0.142,1.521
		L124.861,456.573z"/>
	<path style="fill:none;stroke:#000000;stroke-miterlimit:10;" d="M108.713,526.665l9.095-20.115l-9.002,0.342l-9.09,20.22
		l-4.163,0.053l9.095-20.114l-32.217,1.223l-0.15-3.948l50.011-1.898l0.15,3.948l-0.053,0.002l-9.042,20.113L108.713,526.665z"/>
	<path style="fill:none;stroke:#000000;stroke-miterlimit:10;" d="M125.414,548.043l0.346,3.301l-49.778,5.219l-0.346-3.301
		l19.388-10.614l-21.173-6.416l-0.335-3.196l49.773-5.271l0.34,3.249l-19.703,10.647l21.482,6.329L125.414,548.043z M99.28,540.294
		l15.173-8.372l-32.12,3.368L99.28,540.294z M84.176,552.366l31.958-3.403l-16.517-4.943L84.176,552.366z"/>
	<path style="fill:none;stroke:#000000;stroke-miterlimit:10;" d="M128.312,566.558l-49.315,8.538l-0.674-3.894l49.315-8.538
		L128.312,566.558z"/>
	<path style="fill:none;stroke:#000000;stroke-miterlimit:10;" d="M130.316,577.895l-8.124,22.314l12.798-3.117l0.935,3.84
		l-20.478,4.986l8.124-22.313l-33.275,8.103l17.473,16.081l-20.478,4.986l-0.935-3.839l12.798-3.117l-17.474-16.081L130.316,577.895
		z"/>
	<path style="fill:none;stroke:#000000;stroke-miterlimit:10;" d="M140.51,615.657l-47.721,15.105l-1.192-3.768l47.72-15.104
		L140.51,615.657z"/>
	<path style="fill:none;stroke:#000000;stroke-miterlimit:10;" d="M122.265,639.413l0.068,0.03l16.245,14.847l-32.485,12.699
		l-1.444-3.678l26.237-10.303l-16.245-14.848l29.357-11.584l1.463,3.728L122.265,639.413z"/>
	<path style="fill:none;stroke:#000000;stroke-miterlimit:10;" d="M159.203,662.67l-45.242,21.396l-1.689-3.571l45.241-21.396
		L159.203,662.67z"/>
	<path style="fill:none;stroke:#000000;stroke-miterlimit:10;" d="M129.422,713.515l8.899-20.053l-15.32,8.552l-1.926-3.45
		l43.705-24.396l1.926,3.45l-23.555,13.148l-11.265,27.166L129.422,713.515z"/>
	<path style="fill:none;stroke:#000000;stroke-miterlimit:10;" d="M184.061,706.755l-41.965,27.267l-2.153-3.313l41.966-27.267
		L184.061,706.755z"/>
	<path style="fill:none;stroke:#000000;stroke-miterlimit:10;" d="M181.146,741.432l-22.134,16.583l-2.369-3.162l23.694-17.751
		l-1.597-8.809l3.668-2.748l1.681,8.745l12.606-9.443l2.369,3.161l-14.208,10.645l1.639,8.777l-3.71,2.779L181.146,741.432z"/>
	<path style="fill:none;stroke:#000000;stroke-miterlimit:10;" d="M167.635,769.277l14.309-4.931l5.531-10.378l11.932-5.111
		l6.398-11.956l2.369,2.758l-10.036,19.04l20.336-7.052l2.438,2.838l-14.281,5.045l-5.223,9.767l-11.39,4.853l-6.934,13.111
		l-2.575-2.997l10.236-19.213l-20.536,7.224L167.635,769.277z M186.817,762.661l6.449-2.275l3.348-6.21l-6.563,2.79L186.817,762.661
		z M195.692,763.371l-3.49,6.61l6.603-2.825l3.067-5.969L195.692,763.371z"/>
	<path style="fill:none;stroke:#000000;stroke-miterlimit:10;" d="M209.132,813.496l-2.947-2.632l33.301-37.362l2.986,2.667
		l-0.526,0.59l-5.739,17.972l17.522-7.518l0.492-0.551l2.986,2.668l-33.379,37.291l-2.947-2.632l27.967-31.39l-17.19,7.462
		l5.481-17.92L209.132,813.496z"/>
	<path style="fill:none;stroke:#000000;stroke-miterlimit:10;" d="M268.197,816.38l-9.515-19.92l-27.937,35.802l-3.115-2.431
		l30.789-39.457l3.115,2.431l-0.032,0.041l9.547,19.879L268.197,816.38z"/>
	<path style="fill:none;stroke:#000000;stroke-miterlimit:10;" d="M289.84,813.675l-28.079,41.43l-3.271-2.217l28.078-41.43
		L289.84,813.675z"/>
	<path style="fill:none;stroke:#000000;stroke-miterlimit:10;" d="M311.243,846.866l-3.557-13.546l-21.598,36.98l-3.412-1.992
		l21.571-36.936l-13.474,3.538l2.657-4.549l16.211-4.257l4.257,16.212L311.243,846.866z"/>
	<path style="fill:none;stroke:#000000;stroke-miterlimit:10;" d="M362.558,878.456l0.067-0.032l21.828-2.815l-11.283,33.004
		l-3.741-1.272l9.078-26.687l-21.827,2.815l10.114-29.896l3.791,1.289L362.558,878.456z"/>
	<path style="fill:none;stroke:#000000;stroke-miterlimit:10;" d="M381.814,911.11l-3.818-1.016l12.822-48.372l3.868,1.029
		l-0.203,0.764l3.001,18.624l12.233-14.623l0.189-0.713l3.869,1.03l-12.923,48.344l-3.818-1.016l10.762-40.635l-11.961,14.423
		l-3.208-18.46L381.814,911.11z"/>
	<path style="fill:none;stroke:#000000;stroke-miterlimit:10;" d="M435.316,872.099l3.258,0.636l-9.582,49.126l-3.258-0.636
		l-4.474-21.646l-12.333,18.369l-3.154-0.615l9.53-49.137l3.207,0.625l4.414,21.957l12.341-18.688L435.316,872.099z M420.256,894.82
		l-3.563-16.96l-6.183,31.699L420.256,894.82z M427.379,912.796l6.101-31.555l-9.562,14.347L427.379,912.796z"/>
	<path style="fill:none;stroke:#000000;stroke-miterlimit:10;" d="M485.076,877.328l3.313,0.2l-3.015,49.953l-3.313-0.2
		l-7.29-20.863l-9.799,19.832l-3.208-0.194l2.963-49.955l3.26,0.196l7.271,21.179l9.766-20.15L485.076,877.328z M473.147,901.834
		l-5.769-16.338l-1.945,32.232L473.147,901.834z M482.578,918.71l1.884-32.078l-7.584,15.48L482.578,918.71z"/>
	<path style="fill:none;stroke:#000000;stroke-miterlimit:10;" d="M509.704,927.45l-7.487-13.313l-7.051,13.55l-4.583,0.074
		l9.247-17.854l-8.464-15.089l10.257-17.29l10.813,16.948l-7.97,15.355l9.82,17.544L509.704,927.45z M502.079,905.604l5.722-11.052
		l-6.061-9.807l-5.739,9.998L502.079,905.604z"/>
	<path style="fill:none;stroke:#000000;stroke-miterlimit:10;" d="M550.876,924.655l-3.914,0.54l-6.895-49.568l3.967-0.547
		l0.107,0.782l9.975,16.013l5.622-18.218l-0.102-0.731l3.967-0.547l6.789,49.583l-3.913,0.54l-5.8-41.637l-5.449,17.93
		l-10.102-15.783L550.876,924.655z"/>
	<path style="fill:none;stroke:#000000;stroke-miterlimit:10;" d="M578.67,869.323l10.162,49.011l-3.869,0.802l-10.162-49.01
		L578.67,869.323z"/>
	<path style="fill:none;stroke:#000000;stroke-miterlimit:10;" d="M595.634,865.369l13.472,6.145l11.732,16.584l5.743,20.604
		l-3.299,0.92l-5.573-19.996l-10.856-15.405l-11.517-5.213l-0.609,0.17l12.519,44.914l-3.857,1.075l-13.438-48.214L595.634,865.369z
		"/>
	<path style="fill:none;stroke:#000000;stroke-miterlimit:10;" d="M626.354,882.307l0.032-0.067l15.396-15.72l11.566,32.897
		l-3.725,1.316l-9.389-26.572l-15.396,15.72l-10.561-29.733l3.774-1.334L626.354,882.307z"/>
	<path style="fill:none;stroke:#000000;stroke-miterlimit:10;" d="M659.925,842.293l19.816,45.951l-2.999,1.294l-5.486-12.722
		l-13.406-9.937l-2.313,16.716l5.438,12.742l-2.999,1.293l-19.816-45.952l2.999-1.293l13.996,10.772l1.725-17.552L659.925,842.293z
		 M654.553,864.688l-10.788-8.255l9.407,21.814L654.553,864.688z M668.92,871.398l-9.387-21.767l-1.353,13.491L668.92,871.398z"/>
	<path style="fill:none;stroke:#000000;stroke-miterlimit:10;" d="M701.342,877.359l-12.607-8.627l-0.326,15.272l-4.077,2.095
		l0.392-20.104l-14.269-9.786L672,836.165l17.197,10.414l-0.352,17.299l16.572,11.387L701.342,877.359z M684.834,861.142
		l0.24-12.443l-9.775-6.113l-0.722,11.507L684.834,861.142z"/>
	<path style="fill:none;stroke:#000000;stroke-miterlimit:10;" d="M701.417,819.47l2.843-1.713l25.817,42.879l-2.844,1.712
		l-17.829-13.064l3.16,21.896l-2.753,1.658l-25.862-42.852l2.799-1.685l17.992,13.335l-3.369-22.141L701.417,819.47z
		 M705.47,846.425l-14.012-10.197l16.659,27.668L705.47,846.425z M722.804,854.991l-16.622-27.506l2.521,17.055L722.804,854.991z"/>
	<path style="fill:none;stroke:#000000;stroke-miterlimit:10;" d="M755.14,801.313l-13.919-1.555l26.734,33.458l-3.087,2.466
		l-26.701-33.416l-1.546,13.845l-3.288-4.115l1.86-16.658l16.658,1.86L755.14,801.313z"/>
	<path style="fill:none;stroke:#000000;stroke-miterlimit:10;" d="M782.457,821.104l-2.916,2.666l-33.814-36.899l2.955-2.702
		l0.533,0.583l17.303,7.522l-5.713-18.191l-0.498-0.545l2.955-2.702l33.736,36.972l-2.916,2.666l-28.41-30.99l5.69,17.855
		l-17.276-7.261L782.457,821.104z"/>
	<path style="fill:none;stroke:#000000;stroke-miterlimit:10;" d="M780.753,752.646l36.167,34.602l-2.258,2.36l-10.013-9.579
		l-16.223-3.927l4.385,16.3l9.977,9.617l-2.258,2.36l-36.168-34.602l2.259-2.36l17.092,4.466l-5.255-16.839L780.753,752.646z
		 M784.535,775.369l-13.155-3.398l17.17,16.427L784.535,775.369z M800.386,775.95l-17.132-16.391l4.013,12.954L800.386,775.95z"/>
	<path style="fill:none;stroke:#000000;stroke-miterlimit:10;" d="M781.896,751.421l22.775-6.702l-10.102-8.449l2.535-3.03
		l16.162,13.519l-22.775,6.703l26.263,21.969l2.573-23.602l16.162,13.52l-2.535,3.03l-10.101-8.45l-2.573,23.602L781.896,751.421z"
		/>
	<path style="fill:none;stroke:#000000;stroke-miterlimit:10;" d="M849.851,745.972l-15.139-2.039l6.573,13.789l-2.7,3.704
		l-8.687-18.134l-17.146-2.329l-7.629-18.601l20.044,1.572l7.461,15.61l19.922,2.723L849.851,745.972z M827.815,738.904
		l-5.379-11.224l-11.479-1.066l4.527,10.603L827.815,738.904z"/>
	<path style="fill:none;stroke:#000000;stroke-miterlimit:10;" d="M815.254,707.929l25.324-5.573l-1.872,12.837l29.309,2.922
		l-2.109,3.342l-31.125-2.511l1.169-11.724l-16.28,3.681l37.828,23.876l-2.138,3.386l-42.327-26.716l1.321-2.094l0.815-1.292
		L815.254,707.929z"/>
	<path style="fill:none;stroke:#000000;stroke-miterlimit:10;" d="M844.034,655.724l45.487,20.859l-1.646,3.591l-45.488-20.859
		L844.034,655.724z"/>
	<path style="fill:none;stroke:#000000;stroke-miterlimit:10;" d="M874.885,639.615l25.859,9.806l-1.401,3.693l-27.682-10.496
		l-6.582,6.067l-4.285-1.625l6.483-6.104l-14.727-5.584l1.4-3.694l16.599,6.294l6.533-6.086l4.335,1.644L874.885,639.615z"/>
	<path style="fill:none;stroke:#000000;stroke-miterlimit:10;" d="M910.987,618.485l-20.614,7.508l16.788,5.097l-1.148,3.781
		l-47.894-14.54l1.147-3.781l25.813,7.836l27.377-10.74L910.987,618.485z"/>
	<path style="fill:none;stroke:#000000;stroke-miterlimit:10;" d="M868.188,583.854l48.765,11.278l-0.891,3.85l-48.764-11.278
		L868.188,583.854z"/>
	<path style="fill:none;stroke:#000000;stroke-miterlimit:10;" d="M873.994,552.479l0.528-3.277l49.416,7.958l-0.527,3.277
		l-21.488,5.185l18.766,11.721l-0.512,3.174l-49.425-7.906l0.52-3.226l21.8-5.135l-19.085-11.719L873.994,552.479z M897.2,566.783
		l-16.834,4.12l31.887,5.135L897.2,566.783z M914.932,559.072l-31.738-5.059l14.653,9.085L914.932,559.072z"/>
	<path style="fill:none;stroke:#000000;stroke-miterlimit:10;" d="M876.029,533.848l49.837,4.639l-0.366,3.935l-49.837-4.639
		L876.029,533.848z"/>
	<path style="fill:none;stroke:#000000;stroke-miterlimit:10;" d="M877.5,501.978l0.143-3.317l50.053,1.319l-0.073,3.318
		l-20.597,7.993l20.156,9.12l-0.084,3.212l-50.025-1.266l0.087-3.266l20.865-7.984L877.5,502.03V501.978z M902.506,513.067
		l-16.133,6.319l32.279,0.852L902.506,513.067z M919.053,503.07l-32.123-0.795l15.728,7.055L919.053,503.07z"/>
	<path style="fill:none;stroke:#000000;stroke-miterlimit:10;" d="M877.471,491.107l9.082-11.693l18.84-7.597l21.373-0.842
		l0.135,3.421l-20.741,0.818l-17.491,7.017l-7.726,10.006l0.025,0.631l46.589-1.836l0.157,4.001l-50.011,1.971L877.471,491.107z"/>
	<path style="fill:none;stroke:#000000;stroke-miterlimit:10;" d="M897.408,454.882l27.501-2.924l0.418,3.929l-29.439,3.13
		l-3.135,8.386l-4.558,0.484l3.03-8.375l-15.663,1.666l-0.418-3.929l17.653-1.877l3.083-8.38l4.609-0.49L897.408,454.882z"/>
	<path style="fill:none;stroke:#000000;stroke-miterlimit:10;" d="M886.751,420.175l-8.053,11.46l42.191-7.369l0.68,3.892
		l-42.139,7.36l11.399,8.01l-5.189,0.906l-13.716-9.637l9.637-13.716L886.751,420.175z"/>
	<path style="fill:none;stroke:#000000;stroke-miterlimit:10;" d="M861.881,391.896l5.674-13.678l16.167-12.302l20.394-6.456
		l1.034,3.265l-19.792,6.265l-15.02,11.386l-4.811,11.691l0.19,0.603l44.456-14.071l1.208,3.817l-47.721,15.105L861.881,391.896z"/>
	<path style="fill:none;stroke:#000000;stroke-miterlimit:10;" d="M863.263,345.065l-5.6,12.84l39.871-15.656l1.444,3.678
		l-39.821,15.636l12.771,5.57l-4.904,1.926l-15.367-6.702l6.702-15.367L863.263,345.065z"/>
</g>
<circle style="fill:none;stroke:#000000;stroke-width:6;stroke-miterlimit:10;" cx="500" cy="500" r="377"/>
<polygon style="fill:none;stroke:#000000;stroke-width:6;stroke-miterlimit:10;" points="312.793,824 125.586,500 312.793,176 
	687.207,176 874.414,500 687.207,824 "/>
<polygon style="fill:none;stroke:#000000;stroke-width:3;stroke-miterlimit:10;" points="319.149,813.5 138.297,500.5 
	319.149,187.5 680.852,187.5 861.702,500.5 680.852,813.5 "/>
<circle style="fill:none;stroke:#000000;stroke-width:3;stroke-miterlimit:10;" cx="500" cy="500" r="311.5"/>
<g>
	<path style="fill:#000000;" d="M500,195.281L764.841,654H235.159L500,195.281 M500,189.281L229.963,657h540.074L500,189.281
		L500,189.281z"/>
</g>
<g>
	<path style="fill:#000000;" d="M764.3,347L500,804.008L235.701,347H764 M769.5,344h-539L500,810L769.5,344L769.5,344z"/>
</g>
</svg>
